<svg height="512pt" viewBox="-13 0 512 512.001" width="512pt" xmlns="http://www.w3.org/2000/svg"><path d="m302.859375 131.089844h-17.238281c-4.546875 0-8.453125-3.09375-9.648438-7.480469-2.789062-10.230469-6.855468-19.929687-12.015625-28.921875-2.21875-3.867188-1.660156-8.722656 1.492188-11.878906l12.3125-12.3125c3.804687-3.804688 3.804687-9.976563 0-13.78125l-21.871094-21.871094c-3.808594-3.804688-9.976563-3.804688-13.785156 0l-12.3125 12.3125c-3.152344 3.152344-8.007813 3.710938-11.875 1.492188-8.992188-5.160157-18.695313-9.226563-28.921875-12.015626-4.386719-1.199218-7.484375-5.101562-7.484375-9.648437v-17.238281c0-5.382813-4.363281-9.746094-9.746094-9.746094h-30.929687c-5.382813 0-9.746094 4.363281-9.746094 9.746094v17.238281c0 4.546875-3.09375 8.453125-7.480469 9.648437-10.230469 2.789063-19.929687 6.855469-28.925781 12.015626-3.867188 2.21875-8.722656 1.660156-11.875-1.492188l-12.308594-12.3125c-3.808594-3.804688-9.976562-3.804688-13.785156 0l-21.871094 21.871094c-3.804688 3.804687-3.804688 9.976562 0 13.78125l12.3125 12.3125c3.152344 3.15625 3.710938 8.011718 1.492188 11.878906-5.160157 8.992188-9.226563 18.695312-12.015626 28.921875-1.195312 4.386719-5.097656 7.484375-9.644531 7.484375h-17.242187c-5.382813 0-9.746094 4.359375-9.746094 9.746094v30.929687c0 5.378907 4.363281 9.746094 9.746094 9.746094h17.238281c4.546875 0 8.453125 3.09375 9.648437 7.480469 2.789063 10.230468 6.855469 19.929687 12.015626 28.921875 2.21875 3.867187 1.660156 8.726562-1.492188 11.878906l-12.3125 12.3125c-3.804688 3.804687-3.804688 9.976563 0 13.78125l21.871094 21.871094c3.808594 3.804687 9.976562 3.804687 13.785156 0l12.308594-12.3125c3.15625-3.152344 8.011718-3.710938 11.878906-1.488281 8.992188 5.15625 18.695312 9.226562 28.921875 12.015624 4.386719 1.195313 7.484375 5.097657 7.484375 9.644532v17.238281c0 5.382813 4.363281 9.746094 9.746094 9.746094h30.929687c5.382813 0 9.746094-4.363281 9.746094-9.746094v-17.238281c0-4.546875 3.09375-8.449219 7.480469-9.644532 10.230468-2.789062 19.929687-6.859374 28.921875-12.015624 3.871093-2.222657 8.726562-1.664063 11.878906 1.488281l12.3125 12.3125c3.804687 3.804687 9.976563 3.804687 13.78125 0l21.871094-21.871094c3.808593-3.804687 3.808593-9.976563 0-13.78125l-12.3125-12.3125c-3.152344-3.152344-3.710938-8.011719-1.488281-11.878906 5.160156-8.992188 9.226562-18.691407 12.011718-28.921875 1.199219-4.386719 5.101563-7.480469 9.648438-7.480469h17.238281c5.382813 0 9.746094-4.363281 9.746094-9.746094v-30.929687c0-5.386719-4.363281-9.75-9.746094-9.75zm-146.558594 90.308594c-35.949219 0-65.09375-29.144532-65.09375-65.097657 0-35.949219 29.144531-65.09375 65.09375-65.09375 35.953125 0 65.097657 29.144531 65.097657 65.09375 0 35.953125-29.144532 65.097657-65.097657 65.097657zm0 0" fill="#8ebac5"/><path d="m361.65625 381.636719-27.828125-55.117188v-60.328125h-85.839844v60.328125l-27.828125 55.117188zm0 0" fill="#bb5d4c"/><path d="m302.921875 266.191406v115.445313h58.734375l-27.828125-55.117188v-60.328125zm0 0" fill="#a44f3e"/><path d="m376.265625 188.109375h-5.449219v-21.691406c0-21.59375-8.863281-42.515625-25.226562-56.605469-12.828125-11.046875-30.863282-20.6875-54.679688-20.953125-23.820312.265625-41.855468 9.90625-54.683594 20.953125-16.363281 14.089844-25.226562 35.011719-25.226562 56.605469v21.691406h-5.449219c-7.984375 0-14.460937 6.472656-14.460937 14.460937v16.027344c0 7.988282 6.476562 14.460938 14.460937 14.460938h5.472657c.449218 20.988281 9.269531 41.191406 25.203124 54.914062 12.828126 11.042969 30.863282 20.683594 54.683594 20.953125 23.820313-.269531 41.851563-9.910156 54.679688-20.953125 15.933594-13.722656 24.753906-33.925781 25.203125-54.914062h5.472656c7.984375 0 14.460937-6.472656 14.460937-14.460938v-16.027344c0-7.988281-6.476562-14.460937-14.460937-14.460937zm0 0" fill="#bb5d4c"/><path d="m376.265625 188.109375h-5.449219v-21.691406c0-21.59375-8.863281-42.515625-25.226562-56.605469-2.097656-1.804688-4.34375-3.566406-6.722656-5.257812l-.007813 141.433593c-.449219 20.988281-9.269531 41.191407-25.203125 54.914063-2.714844 2.335937-5.675781 4.597656-8.859375 6.730468 17.082031-2.996093 30.589844-10.875 40.792969-19.664062 15.933594-13.71875 24.753906-33.921875 25.203125-54.910156h5.472656c7.984375 0 14.460937-6.476563 14.460937-14.460938v-16.027344c0-7.988281-6.476562-14.460937-14.460937-14.460937zm0 0" fill="#a44f3e"/><path d="m295.089844 64.726562h-8.363282c-50.835937 0-92.046874 41.207032-92.046874 92.042969v26.5h192.457031v-26.5c0-50.835937-41.210938-92.042969-92.046875-92.042969zm0 0" fill="#ff9838"/><path d="m295.089844 64.726562h-8.363282c-3.917968 0-7.773437.253907-11.5625.730469 45.328126 5.734375 80.378907 44.429688 80.378907 91.3125v26.5h31.59375v-26.5c0-50.835937-41.210938-92.042969-92.046875-92.042969zm0 0" fill="#ff8709"/><path d="m390.089844 196.726562h-198.363282c-7.359374 0-13.324218-5.964843-13.324218-13.324218 0-7.355469 5.964844-13.324219 13.324218-13.324219h198.363282c7.359375 0 13.324218 5.96875 13.324218 13.324219-.003906 7.359375-5.964843 13.324218-13.324218 13.324218zm0 0" fill="#ff8709"/><path d="m426.554688 344.550781-92.726563-18.03125c0 23.707031-42.917969 42.921875-42.917969 42.921875s-42.921875-19.214844-42.921875-42.921875l-92.726562 18.03125c-35.015625 10.308594-59.058594 28.601563-59.058594 65.101563v78.589844c0 13.121093 10.636719 23.757812 23.757813 23.757812h341.894531c13.121093 0 23.757812-10.636719 23.757812-23.757812v-78.589844c0-36.5-24.042969-54.792969-59.058593-65.101563zm0 0" fill="#deecf1"/><path d="m443.503906 350.609375c7.164063 9.542969 11.203125 21.429687 11.203125 36.378906v125.011719h7.148438c13.121093 0 23.757812-10.636719 23.757812-23.757812v-78.589844c0-30.25-16.523437-47.988282-42.109375-59.042969zm0 0" fill="#a8d3d8"/><path d="m247.988281 326.519531-34.75 6.757813c2.066407 19.253906 19.15625 36.667968 36.777344 49.761718 4.9375 3.667969 11.613281 3.953126 16.886719.792969l24.003906-14.390625s-42.917969-19.21875-42.917969-42.921875zm0 0" fill="#8ebac5"/><path d="m333.828125 326.519531c0 23.707031-42.921875 42.921875-42.921875 42.921875l24.003906 14.390625c5.273438 3.164063 11.949219 2.875 16.886719-.792969 17.621094-13.09375 34.710937-30.507812 36.777344-49.761718zm0 0" fill="#8ebac5"/><path d="m142.445312 348.925781 5.171876 17.292969c8.4375 29.066406 12.722656 59.183594 12.722656 89.449219v56.332031h130.570312s0-26.851562-.003906-46.652344c0-13.109375-4.042969-25.890625-11.585938-36.613281-21.652343-30.773437-66.078124-95.457031-66.082031-95.457031l-49.710937 9.667968c-7.1875 1.394532-14.253906 3.359376-21.082032 5.980469zm0 0" fill="#ff9838"/><path d="m439.371094 348.925781-5.171875 17.292969c-8.441407 29.066406-12.722657 59.183594-12.722657 89.449219v56.332031h-130.570312s0-26.851562.003906-46.652344c0-13.109375 4.042969-25.890625 11.585938-36.613281 21.652344-30.773437 66.078125-95.457031 66.082031-95.457031l49.710937 9.667968c7.183594 1.394532 14.253907 3.359376 21.082032 5.980469zm0 0" fill="#ff8709"/><path d="m378.464844 473.324219h-45.4375c-3.03125 0-5.484375-2.457031-5.484375-5.484375v-15.480469c0-3.03125 2.453125-5.488281 5.484375-5.488281h45.4375c3.03125 0 5.488281 2.457031 5.488281 5.488281v15.480469c0 3.027344-2.457031 5.484375-5.488281 5.484375zm0 0" fill="#fff156"/></svg>